# xmcd CD database file
#
# Track frame offsets:
#	182
#	17010
#	37557
#	50780
#	69795
#	89792
#	107202
#	121222
#	135242
#	148667
#	163667
#	183772
#	207305
#
# Disc length: 3006 seconds
#
# Revision: 0
# Processed by: cddbd v1.5.2PL0 Copyright (c) Steve Scherf et al.
# Submitted via: CDex 1.40Release
#
DISCID=ac0bbc0d
DTITLE=Rosanne Cash - Live in USA
DYEAR=1900
DGENRE=Country
TTITLE0=Hold On
TTITLE1=My Baby Think's He's A Train
TTITLE2=Tennessee Flat-Top Box
TTITLE3=This Is The Way We Make A Broken Heart
TTITLE4=Runaway Train
TTITLE5=707
TTITLE6=What Kinda Girl
TTITLE7=I Don't Know Why You Don't Wan't Me
TTITLE8=Pink Bedroom
TTITLE9=Seven Year Ache
TTITLE10=Blue Moon With Heartache
TTITLE11=Medley
TTITLE12=Medley
EXTD=ID3G: 2
EXTT0=
EXTT1=
EXTT2=
EXTT3=
EXTT4=
EXTT5=
EXTT6=
EXTT7=
EXTT8=
EXTT9=
EXTT10=
EXTT11=
EXTT12=
PLAYORDER=
